# xmcd
#
# Track frame offsets: 
#        150
#        15823
#        30286
#        45511
#        64258
#        78656
#        93158
#        108372
#        121636
#        140371
#
# Disc length: 2134 seconds
#
# Revision: 0
# Processed by: cddbd v1.5.2PL0 Copyright (c) Steve Scherf et al.
# Submitted via: ExactAudioCopyFreeDBPlugin 1.0
#
DISCID=6908540a
DTITLE=The Rhythm Junks - It Takes a While
DYEAR=2015
DGENRE=Blues
TTITLE0=Headphone City
TTITLE1=Calling Masala
TTITLE2=Why Would I Worry
TTITLE3=It Takes a While
TTITLE4=The Game Is Up
TTITLE5=How Long
TTITLE6=Hunters of the Heart
TTITLE7=Shopping Again
TTITLE8=Trying to Listen
TTITLE9=Winter Bones
EXTD=
EXTT0=
EXTT1=
EXTT2=
EXTT3=
EXTT4=
EXTT5=
EXTT6=
EXTT7=
EXTT8=
EXTT9=
PLAYORDER=
